<?xml version="1.0" encoding="UTF-8" standalone="no"?>
<!DOCTYPE svg PUBLIC "-//W3C//DTD SVG 1.1//EN"
 "http://www.w3.org/Graphics/SVG/1.1/DTD/svg11.dtd">
<!-- Generated by graphviz version 2.43.0 (0)
 -->
<!-- Title: DUMP Pages: 1 -->
<svg width="1296pt" height="1190pt"
 viewBox="0.00 0.00 1295.50 1190.00" xmlns="http://www.w3.org/2000/svg" xmlns:xlink="http://www.w3.org/1999/xlink">
<g id="graph0" class="graph" transform="scale(1 1) rotate(0) translate(4 1186)">
<title>DUMP</title>
<polygon fill="white" stroke="transparent" points="-4,4 -4,-1186 1291.5,-1186 1291.5,4 -4,4"/>
<!-- node0 -->
<g id="node1" class="node">
<title>node0</title>
<polygon fill="#0bdfee" stroke="transparent" points="244.5,-1019 244.5,-1178 649.5,-1178 649.5,-1019 244.5,-1019"/>
<polygon fill="#eeff00" stroke="transparent" points="248,-1138.5 248,-1174.5 647,-1174.5 647,-1138.5 248,-1138.5"/>
<polygon fill="none" stroke="#000000" stroke-width="2" points="249,-1139.5 249,-1173.5 646,-1173.5 646,-1139.5 249,-1139.5"/>
<text text-anchor="start" x="353.5" y="-1150.3" font-family="Arial" font-size="24.00">0x504000000310</text>
<polygon fill="#b0e0b0" stroke="transparent" stroke-width="2" points="248,-1099.5 248,-1135.5 647,-1135.5 647,-1099.5 248,-1099.5"/>
<polygon fill="none" stroke="#000000" stroke-width="2" points="249,-1100.5 249,-1134.5 646,-1134.5 646,-1100.5 249,-1100.5"/>
<text text-anchor="start" x="377" y="-1111.3" font-family="Arial" font-size="24.00">type = FUNC</text>
<polygon fill="#c5a1e6" stroke="transparent" stroke-width="2" points="248,-1060.5 248,-1096.5 647,-1096.5 647,-1060.5 248,-1060.5"/>
<polygon fill="none" stroke="#000000" stroke-width="2" points="249,-1061.5 249,-1095.5 646,-1095.5 646,-1061.5 249,-1061.5"/>
<text text-anchor="start" x="319" y="-1072.3" font-family="Arial" font-size="24.00">value = &#160;НайтиШпиона </text>
<polygon fill="#88ff00" stroke="transparent" stroke-width="2" points="248,-1021.5 248,-1057.5 446,-1057.5 446,-1021.5 248,-1021.5"/>
<polygon fill="none" stroke="#000000" stroke-width="2" points="249,-1022.5 249,-1056.5 445,-1056.5 445,-1022.5 249,-1022.5"/>
<text text-anchor="start" x="253" y="-1033.3" font-family="Arial" font-size="24.00">0x504000000490</text>
<polygon fill="#00ff22" stroke="transparent" stroke-width="2" points="449,-1021.5 449,-1057.5 647,-1057.5 647,-1021.5 449,-1021.5"/>
<polygon fill="none" stroke="#000000" stroke-width="2" points="450,-1022.5 450,-1056.5 646,-1056.5 646,-1022.5 450,-1022.5"/>
<text text-anchor="start" x="454" y="-1033.3" font-family="Arial" font-size="24.00">0x504000000350</text>
</g>
<!-- node1 -->
<g id="node2" class="node">
<title>node1</title>
<polygon fill="#0bdfee" stroke="transparent" points="8,-816 8,-975 436,-975 436,-816 8,-816"/>
<polygon fill="#88ff00" stroke="transparent" points="11,-935.5 11,-971.5 433,-971.5 433,-935.5 11,-935.5"/>
<polygon fill="none" stroke="#000000" stroke-width="2" points="12,-936.5 12,-970.5 432,-970.5 432,-936.5 12,-936.5"/>
<text text-anchor="start" x="128" y="-947.3" font-family="Arial" font-size="24.00">0x504000000490</text>
<polygon fill="#b0e0b0" stroke="transparent" stroke-width="2" points="11,-896.5 11,-932.5 433,-932.5 433,-896.5 11,-896.5"/>
<polygon fill="none" stroke="#000000" stroke-width="2" points="12,-897.5 12,-931.5 432,-931.5 432,-897.5 12,-897.5"/>
<text text-anchor="start" x="151.5" y="-908.3" font-family="Arial" font-size="24.00">type = FUNC</text>
<polygon fill="#c5a1e6" stroke="transparent" stroke-width="2" points="11,-857.5 11,-893.5 433,-893.5 433,-857.5 11,-857.5"/>
<polygon fill="none" stroke="#000000" stroke-width="2" points="12,-858.5 12,-892.5 432,-892.5 432,-858.5 12,-858.5"/>
<text text-anchor="start" x="17.5" y="-869.3" font-family="Arial" font-size="24.00">value = &#160;ВыполнитьПриказГенерала </text>
<polygon fill="#cccccc" stroke="transparent" stroke-width="2" points="11,-818.5 11,-854.5 220,-854.5 220,-818.5 11,-818.5"/>
<polygon fill="none" stroke="#000000" stroke-width="2" points="12,-819.5 12,-853.5 219,-853.5 219,-819.5 12,-819.5"/>
<text text-anchor="start" x="21.5" y="-830.3" font-family="Arial" font-size="24.00">0x000000000000</text>
<polygon fill="#00ff88" stroke="transparent" stroke-width="2" points="223,-818.5 223,-854.5 433,-854.5 433,-818.5 223,-818.5"/>
<polygon fill="none" stroke="#000000" stroke-width="2" points="224,-819.5 224,-853.5 432,-853.5 432,-819.5 224,-819.5"/>
<text text-anchor="start" x="234" y="-830.3" font-family="Arial" font-size="24.00">0x5040000004d0</text>
</g>
<!-- node0&#45;&gt;node1 -->
<g id="edge1" class="edge">
<title>node0:s&#45;&gt;node1:n</title>
<path fill="none" stroke="#4d00a6" stroke-width="2" d="M347,-1020.5C347,-1020.5 261.28,-992.04 231.81,-982.26"/>
<polygon fill="#4d00a6" stroke="#4d00a6" stroke-width="2" points="232.59,-978.83 222,-979 230.39,-985.47 232.59,-978.83"/>
</g>
<!-- node6 -->
<g id="node7" class="node">
<title>node6</title>
<polygon fill="#0bdfee" stroke="transparent" points="470.5,-816 470.5,-975 875.5,-975 875.5,-816 470.5,-816"/>
<polygon fill="#00ff22" stroke="transparent" points="474,-935.5 474,-971.5 873,-971.5 873,-935.5 474,-935.5"/>
<polygon fill="none" stroke="#000000" stroke-width="2" points="475,-936.5 475,-970.5 872,-970.5 872,-936.5 475,-936.5"/>
<text text-anchor="start" x="579.5" y="-947.3" font-family="Arial" font-size="24.00">0x504000000350</text>
<polygon fill="#b0e0b0" stroke="transparent" stroke-width="2" points="474,-896.5 474,-932.5 873,-932.5 873,-896.5 474,-896.5"/>
<polygon fill="none" stroke="#000000" stroke-width="2" points="475,-897.5 475,-931.5 872,-931.5 872,-897.5 475,-897.5"/>
<text text-anchor="start" x="619" y="-908.3" font-family="Arial" font-size="24.00">type = OP</text>
<polygon fill="#c5a1e6" stroke="transparent" stroke-width="2" points="474,-857.5 474,-893.5 873,-893.5 873,-857.5 474,-857.5"/>
<polygon fill="none" stroke="#000000" stroke-width="2" points="475,-858.5 475,-892.5 872,-892.5 872,-858.5 475,-858.5"/>
<text text-anchor="start" x="584.5" y="-869.3" font-family="Arial" font-size="24.00">value = &#160;L_RND </text>
<polygon fill="#cccccc" stroke="transparent" stroke-width="2" points="474,-818.5 474,-854.5 672,-854.5 672,-818.5 474,-818.5"/>
<polygon fill="none" stroke="#000000" stroke-width="2" points="475,-819.5 475,-853.5 671,-853.5 671,-819.5 475,-819.5"/>
<text text-anchor="start" x="479" y="-830.3" font-family="Arial" font-size="24.00">0x000000000000</text>
<polygon fill="#00ccff" stroke="transparent" stroke-width="2" points="675,-818.5 675,-854.5 873,-854.5 873,-818.5 675,-818.5"/>
<polygon fill="none" stroke="#000000" stroke-width="2" points="676,-819.5 676,-853.5 872,-853.5 872,-819.5 676,-819.5"/>
<text text-anchor="start" x="680" y="-830.3" font-family="Arial" font-size="24.00">0x504000000390</text>
</g>
<!-- node0&#45;&gt;node6 -->
<g id="edge6" class="edge">
<title>node0:s&#45;&gt;node6:n</title>
<path fill="none" stroke="#4d00a6" stroke-width="2" d="M548,-1020.5C548,-1020.5 633.72,-992.04 663.19,-982.26"/>
<polygon fill="#4d00a6" stroke="#4d00a6" stroke-width="2" points="664.61,-985.47 673,-979 662.41,-978.83 664.61,-985.47"/>
</g>
<!-- node2 -->
<g id="node3" class="node">
<title>node2</title>
<polygon fill="#0bdfee" stroke="transparent" points="125.5,-613 125.5,-772 530.5,-772 530.5,-613 125.5,-613"/>
<polygon fill="#00ff88" stroke="transparent" points="129,-732.5 129,-768.5 528,-768.5 528,-732.5 129,-732.5"/>
<polygon fill="none" stroke="#000000" stroke-width="2" points="130,-733.5 130,-767.5 527,-767.5 527,-733.5 130,-733.5"/>
<text text-anchor="start" x="234.5" y="-744.3" font-family="Arial" font-size="24.00">0x5040000004d0</text>
<polygon fill="#b0e0b0" stroke="transparent" stroke-width="2" points="129,-693.5 129,-729.5 528,-729.5 528,-693.5 129,-693.5"/>
<polygon fill="none" stroke="#000000" stroke-width="2" points="130,-694.5 130,-728.5 527,-728.5 527,-694.5 130,-694.5"/>
<text text-anchor="start" x="274" y="-705.3" font-family="Arial" font-size="24.00">type = OP</text>
<polygon fill="#c5a1e6" stroke="transparent" stroke-width="2" points="129,-654.5 129,-690.5 528,-690.5 528,-654.5 129,-654.5"/>
<polygon fill="none" stroke="#000000" stroke-width="2" points="130,-655.5 130,-689.5 527,-689.5 527,-655.5 130,-655.5"/>
<text text-anchor="start" x="239.5" y="-666.3" font-family="Arial" font-size="24.00">value = &#160;L_RND </text>
<polygon fill="#cccccc" stroke="transparent" stroke-width="2" points="129,-615.5 129,-651.5 327,-651.5 327,-615.5 129,-615.5"/>
<polygon fill="none" stroke="#000000" stroke-width="2" points="130,-616.5 130,-650.5 326,-650.5 326,-616.5 130,-616.5"/>
<text text-anchor="start" x="134" y="-627.3" font-family="Arial" font-size="24.00">0x000000000000</text>
<polygon fill="#0066ff" stroke="transparent" stroke-width="2" points="330,-615.5 330,-651.5 528,-651.5 528,-615.5 330,-615.5"/>
<polygon fill="none" stroke="#000000" stroke-width="2" points="331,-616.5 331,-650.5 527,-650.5 527,-616.5 331,-616.5"/>
<text text-anchor="start" x="335" y="-627.3" font-family="Arial" font-size="24.00">0x504000000510</text>
</g>
<!-- node1&#45;&gt;node2 -->
<g id="edge2" class="edge">
<title>node1:s&#45;&gt;node2:n</title>
<path fill="none" stroke="#4d00a6" stroke-width="2" d="M328,-817.5C328,-817.5 328,-798.33 328,-786.05"/>
<polygon fill="#4d00a6" stroke="#4d00a6" stroke-width="2" points="331.5,-786 328,-776 324.5,-786 331.5,-786"/>
</g>
<!-- node3 -->
<g id="node4" class="node">
<title>node3</title>
<polygon fill="#0bdfee" stroke="transparent" points="226.5,-410 226.5,-569 631.5,-569 631.5,-410 226.5,-410"/>
<polygon fill="#0066ff" stroke="transparent" points="230,-529.5 230,-565.5 629,-565.5 629,-529.5 230,-529.5"/>
<polygon fill="none" stroke="#000000" stroke-width="2" points="231,-530.5 231,-564.5 628,-564.5 628,-530.5 231,-530.5"/>
<text text-anchor="start" x="335.5" y="-541.3" font-family="Arial" font-size="24.00">0x504000000510</text>
<polygon fill="#b0e0b0" stroke="transparent" stroke-width="2" points="230,-490.5 230,-526.5 629,-526.5 629,-490.5 230,-490.5"/>
<polygon fill="none" stroke="#000000" stroke-width="2" points="231,-491.5 231,-525.5 628,-525.5 628,-491.5 231,-491.5"/>
<text text-anchor="start" x="375" y="-502.3" font-family="Arial" font-size="24.00">type = OP</text>
<polygon fill="#c5a1e6" stroke="transparent" stroke-width="2" points="230,-451.5 230,-487.5 629,-487.5 629,-451.5 230,-451.5"/>
<polygon fill="none" stroke="#000000" stroke-width="2" points="231,-452.5 231,-486.5 628,-486.5 628,-452.5 231,-452.5"/>
<text text-anchor="start" x="338.5" y="-463.3" font-family="Arial" font-size="24.00">value = &#160;R_RND </text>
<polygon fill="#cccccc" stroke="transparent" stroke-width="2" points="230,-412.5 230,-448.5 428,-448.5 428,-412.5 230,-412.5"/>
<polygon fill="none" stroke="#000000" stroke-width="2" points="231,-413.5 231,-447.5 427,-447.5 427,-413.5 231,-413.5"/>
<text text-anchor="start" x="235" y="-424.3" font-family="Arial" font-size="24.00">0x000000000000</text>
<polygon fill="#aa00ff" stroke="transparent" stroke-width="2" points="431,-412.5 431,-448.5 629,-448.5 629,-412.5 431,-412.5"/>
<polygon fill="none" stroke="#000000" stroke-width="2" points="432,-413.5 432,-447.5 628,-447.5 628,-413.5 432,-413.5"/>
<text text-anchor="start" x="436" y="-424.3" font-family="Arial" font-size="24.00">0x504000000550</text>
</g>
<!-- node2&#45;&gt;node3 -->
<g id="edge3" class="edge">
<title>node2:s&#45;&gt;node3:n</title>
<path fill="none" stroke="#4d00a6" stroke-width="2" d="M429,-614.5C429,-614.5 429,-595.33 429,-583.05"/>
<polygon fill="#4d00a6" stroke="#4d00a6" stroke-width="2" points="432.5,-583 429,-573 425.5,-583 432.5,-583"/>
</g>
<!-- node4 -->
<g id="node5" class="node">
<title>node4</title>
<polygon fill="#0bdfee" stroke="transparent" points="327.5,-207 327.5,-366 732.5,-366 732.5,-207 327.5,-207"/>
<polygon fill="#aa00ff" stroke="transparent" points="331,-326.5 331,-362.5 730,-362.5 730,-326.5 331,-326.5"/>
<polygon fill="none" stroke="#000000" stroke-width="2" points="332,-327.5 332,-361.5 729,-361.5 729,-327.5 332,-327.5"/>
<text text-anchor="start" x="436.5" y="-338.3" font-family="Arial" font-size="24.00">0x504000000550</text>
<polygon fill="#b0e0b0" stroke="transparent" stroke-width="2" points="331,-287.5 331,-323.5 730,-323.5 730,-287.5 331,-287.5"/>
<polygon fill="none" stroke="#000000" stroke-width="2" points="332,-288.5 332,-322.5 729,-322.5 729,-288.5 332,-288.5"/>
<text text-anchor="start" x="476" y="-299.3" font-family="Arial" font-size="24.00">type = OP</text>
<polygon fill="#c5a1e6" stroke="transparent" stroke-width="2" points="331,-248.5 331,-284.5 730,-284.5 730,-248.5 331,-248.5"/>
<polygon fill="none" stroke="#000000" stroke-width="2" points="332,-249.5 332,-283.5 729,-283.5 729,-249.5 332,-249.5"/>
<text text-anchor="start" x="447" y="-260.3" font-family="Arial" font-size="24.00">value = &#160;L_FIG </text>
<polygon fill="#cccccc" stroke="transparent" stroke-width="2" points="331,-209.5 331,-245.5 529,-245.5 529,-209.5 331,-209.5"/>
<polygon fill="none" stroke="#000000" stroke-width="2" points="332,-210.5 332,-244.5 528,-244.5 528,-210.5 332,-210.5"/>
<text text-anchor="start" x="336" y="-221.3" font-family="Arial" font-size="24.00">0x000000000000</text>
<polygon fill="#ff0044" stroke="transparent" stroke-width="2" points="532,-209.5 532,-245.5 730,-245.5 730,-209.5 532,-209.5"/>
<polygon fill="none" stroke="#000000" stroke-width="2" points="533,-210.5 533,-244.5 729,-244.5 729,-210.5 533,-210.5"/>
<text text-anchor="start" x="537" y="-221.3" font-family="Arial" font-size="24.00">0x504000000590</text>
</g>
<!-- node3&#45;&gt;node4 -->
<g id="edge4" class="edge">
<title>node3:s&#45;&gt;node4:n</title>
<path fill="none" stroke="#4d00a6" stroke-width="2" d="M530,-411.5C530,-411.5 530,-392.33 530,-380.05"/>
<polygon fill="#4d00a6" stroke="#4d00a6" stroke-width="2" points="533.5,-380 530,-370 526.5,-380 533.5,-380"/>
</g>
<!-- node5 -->
<g id="node6" class="node">
<title>node5</title>
<polygon fill="#0bdfee" stroke="transparent" points="428.5,-4 428.5,-163 833.5,-163 833.5,-4 428.5,-4"/>
<polygon fill="#ff0044" stroke="transparent" points="432,-123.5 432,-159.5 831,-159.5 831,-123.5 432,-123.5"/>
<polygon fill="none" stroke="#000000" stroke-width="2" points="433,-124.5 433,-158.5 830,-158.5 830,-124.5 433,-124.5"/>
<text text-anchor="start" x="537.5" y="-135.3" font-family="Arial" font-size="24.00">0x504000000590</text>
<polygon fill="#b0e0b0" stroke="transparent" stroke-width="2" points="432,-84.5 432,-120.5 831,-120.5 831,-84.5 432,-84.5"/>
<polygon fill="none" stroke="#000000" stroke-width="2" points="433,-85.5 433,-119.5 830,-119.5 830,-85.5 433,-85.5"/>
<text text-anchor="start" x="577" y="-96.3" font-family="Arial" font-size="24.00">type = OP</text>
<polygon fill="#c5a1e6" stroke="transparent" stroke-width="2" points="432,-45.5 432,-81.5 831,-81.5 831,-45.5 432,-45.5"/>
<polygon fill="none" stroke="#000000" stroke-width="2" points="433,-46.5 433,-80.5 830,-80.5 830,-46.5 433,-46.5"/>
<text text-anchor="start" x="546" y="-57.3" font-family="Arial" font-size="24.00">value = &#160;R_FIG </text>
<polygon fill="#cccccc" stroke="transparent" stroke-width="2" points="432,-6.5 432,-42.5 630,-42.5 630,-6.5 432,-6.5"/>
<polygon fill="none" stroke="#000000" stroke-width="2" points="433,-7.5 433,-41.5 629,-41.5 629,-7.5 433,-7.5"/>
<text text-anchor="start" x="437" y="-18.3" font-family="Arial" font-size="24.00">0x000000000000</text>
<polygon fill="#cccccc" stroke="transparent" stroke-width="2" points="633,-6.5 633,-42.5 831,-42.5 831,-6.5 633,-6.5"/>
<polygon fill="none" stroke="#000000" stroke-width="2" points="634,-7.5 634,-41.5 830,-41.5 830,-7.5 634,-7.5"/>
<text text-anchor="start" x="638" y="-18.3" font-family="Arial" font-size="24.00">0x000000000000</text>
</g>
<!-- node4&#45;&gt;node5 -->
<g id="edge5" class="edge">
<title>node4:s&#45;&gt;node5:n</title>
<path fill="none" stroke="#4d00a6" stroke-width="2" d="M631,-208.5C631,-208.5 631,-189.33 631,-177.05"/>
<polygon fill="#4d00a6" stroke="#4d00a6" stroke-width="2" points="634.5,-177 631,-167 627.5,-177 634.5,-177"/>
</g>
<!-- node7 -->
<g id="node8" class="node">
<title>node7</title>
<polygon fill="#0bdfee" stroke="transparent" points="571.5,-613 571.5,-772 976.5,-772 976.5,-613 571.5,-613"/>
<polygon fill="#00ccff" stroke="transparent" points="575,-732.5 575,-768.5 974,-768.5 974,-732.5 575,-732.5"/>
<polygon fill="none" stroke="#000000" stroke-width="2" points="576,-733.5 576,-767.5 973,-767.5 973,-733.5 576,-733.5"/>
<text text-anchor="start" x="680.5" y="-744.3" font-family="Arial" font-size="24.00">0x504000000390</text>
<polygon fill="#b0e0b0" stroke="transparent" stroke-width="2" points="575,-693.5 575,-729.5 974,-729.5 974,-693.5 575,-693.5"/>
<polygon fill="none" stroke="#000000" stroke-width="2" points="576,-694.5 576,-728.5 973,-728.5 973,-694.5 576,-694.5"/>
<text text-anchor="start" x="714" y="-705.3" font-family="Arial" font-size="24.00">type = VAR</text>
<polygon fill="#c5a1e6" stroke="transparent" stroke-width="2" points="575,-654.5 575,-690.5 974,-690.5 974,-654.5 575,-654.5"/>
<polygon fill="none" stroke="#000000" stroke-width="2" points="576,-655.5 576,-689.5 973,-689.5 973,-655.5 576,-655.5"/>
<text text-anchor="start" x="645" y="-666.3" font-family="Arial" font-size="24.00">value = &#160;ПозицияВрага </text>
<polygon fill="#cccccc" stroke="transparent" stroke-width="2" points="575,-615.5 575,-651.5 773,-651.5 773,-615.5 575,-615.5"/>
<polygon fill="none" stroke="#000000" stroke-width="2" points="576,-616.5 576,-650.5 772,-650.5 772,-616.5 576,-616.5"/>
<text text-anchor="start" x="580" y="-627.3" font-family="Arial" font-size="24.00">0x000000000000</text>
<polygon fill="#4400ff" stroke="transparent" stroke-width="2" points="776,-615.5 776,-651.5 974,-651.5 974,-615.5 776,-615.5"/>
<polygon fill="none" stroke="#000000" stroke-width="2" points="777,-616.5 777,-650.5 973,-650.5 973,-616.5 777,-616.5"/>
<text text-anchor="start" x="781" y="-627.3" font-family="Arial" font-size="24.00">0x5040000003d0</text>
</g>
<!-- node6&#45;&gt;node7 -->
<g id="edge7" class="edge">
<title>node6:s&#45;&gt;node7:n</title>
<path fill="none" stroke="#4d00a6" stroke-width="2" d="M774,-817.5C774,-817.5 774,-798.33 774,-786.05"/>
<polygon fill="#4d00a6" stroke="#4d00a6" stroke-width="2" points="777.5,-786 774,-776 770.5,-786 777.5,-786"/>
</g>
<!-- node8 -->
<g id="node9" class="node">
<title>node8</title>
<polygon fill="#0bdfee" stroke="transparent" points="672.5,-410 672.5,-569 1077.5,-569 1077.5,-410 672.5,-410"/>
<polygon fill="#4400ff" stroke="transparent" points="676,-529.5 676,-565.5 1075,-565.5 1075,-529.5 676,-529.5"/>
<polygon fill="none" stroke="#000000" stroke-width="2" points="677,-530.5 677,-564.5 1074,-564.5 1074,-530.5 677,-530.5"/>
<text text-anchor="start" x="781.5" y="-541.3" font-family="Arial" font-size="24.00">0x5040000003d0</text>
<polygon fill="#b0e0b0" stroke="transparent" stroke-width="2" points="676,-490.5 676,-526.5 1075,-526.5 1075,-490.5 676,-490.5"/>
<polygon fill="none" stroke="#000000" stroke-width="2" points="677,-491.5 677,-525.5 1074,-525.5 1074,-491.5 677,-491.5"/>
<text text-anchor="start" x="821" y="-502.3" font-family="Arial" font-size="24.00">type = OP</text>
<polygon fill="#c5a1e6" stroke="transparent" stroke-width="2" points="676,-451.5 676,-487.5 1075,-487.5 1075,-451.5 676,-451.5"/>
<polygon fill="none" stroke="#000000" stroke-width="2" points="677,-452.5 677,-486.5 1074,-486.5 1074,-452.5 677,-452.5"/>
<text text-anchor="start" x="784.5" y="-463.3" font-family="Arial" font-size="24.00">value = &#160;R_RND </text>
<polygon fill="#cccccc" stroke="transparent" stroke-width="2" points="676,-412.5 676,-448.5 874,-448.5 874,-412.5 676,-412.5"/>
<polygon fill="none" stroke="#000000" stroke-width="2" points="677,-413.5 677,-447.5 873,-447.5 873,-413.5 677,-413.5"/>
<text text-anchor="start" x="681" y="-424.3" font-family="Arial" font-size="24.00">0x000000000000</text>
<polygon fill="#ff00aa" stroke="transparent" stroke-width="2" points="877,-412.5 877,-448.5 1075,-448.5 1075,-412.5 877,-412.5"/>
<polygon fill="none" stroke="#000000" stroke-width="2" points="878,-413.5 878,-447.5 1074,-447.5 1074,-413.5 878,-413.5"/>
<text text-anchor="start" x="882" y="-424.3" font-family="Arial" font-size="24.00">0x504000000410</text>
</g>
<!-- node7&#45;&gt;node8 -->
<g id="edge8" class="edge">
<title>node7:s&#45;&gt;node8:n</title>
<path fill="none" stroke="#4d00a6" stroke-width="2" d="M875,-614.5C875,-614.5 875,-595.33 875,-583.05"/>
<polygon fill="#4d00a6" stroke="#4d00a6" stroke-width="2" points="878.5,-583 875,-573 871.5,-583 878.5,-583"/>
</g>
<!-- node9 -->
<g id="node10" class="node">
<title>node9</title>
<polygon fill="#0bdfee" stroke="transparent" points="773.5,-207 773.5,-366 1178.5,-366 1178.5,-207 773.5,-207"/>
<polygon fill="#ff00aa" stroke="transparent" points="777,-326.5 777,-362.5 1176,-362.5 1176,-326.5 777,-326.5"/>
<polygon fill="none" stroke="#000000" stroke-width="2" points="778,-327.5 778,-361.5 1175,-361.5 1175,-327.5 778,-327.5"/>
<text text-anchor="start" x="882.5" y="-338.3" font-family="Arial" font-size="24.00">0x504000000410</text>
<polygon fill="#b0e0b0" stroke="transparent" stroke-width="2" points="777,-287.5 777,-323.5 1176,-323.5 1176,-287.5 777,-287.5"/>
<polygon fill="none" stroke="#000000" stroke-width="2" points="778,-288.5 778,-322.5 1175,-322.5 1175,-288.5 778,-288.5"/>
<text text-anchor="start" x="922" y="-299.3" font-family="Arial" font-size="24.00">type = OP</text>
<polygon fill="#c5a1e6" stroke="transparent" stroke-width="2" points="777,-248.5 777,-284.5 1176,-284.5 1176,-248.5 777,-248.5"/>
<polygon fill="none" stroke="#000000" stroke-width="2" points="778,-249.5 778,-283.5 1175,-283.5 1175,-249.5 778,-249.5"/>
<text text-anchor="start" x="893" y="-260.3" font-family="Arial" font-size="24.00">value = &#160;L_FIG </text>
<polygon fill="#cccccc" stroke="transparent" stroke-width="2" points="777,-209.5 777,-245.5 975,-245.5 975,-209.5 777,-209.5"/>
<polygon fill="none" stroke="#000000" stroke-width="2" points="778,-210.5 778,-244.5 974,-244.5 974,-210.5 778,-210.5"/>
<text text-anchor="start" x="782" y="-221.3" font-family="Arial" font-size="24.00">0x000000000000</text>
<polygon fill="#ff6600" stroke="transparent" stroke-width="2" points="978,-209.5 978,-245.5 1176,-245.5 1176,-209.5 978,-209.5"/>
<polygon fill="none" stroke="#000000" stroke-width="2" points="979,-210.5 979,-244.5 1175,-244.5 1175,-210.5 979,-210.5"/>
<text text-anchor="start" x="983" y="-221.3" font-family="Arial" font-size="24.00">0x504000000450</text>
</g>
<!-- node8&#45;&gt;node9 -->
<g id="edge9" class="edge">
<title>node8:s&#45;&gt;node9:n</title>
<path fill="none" stroke="#4d00a6" stroke-width="2" d="M976,-411.5C976,-411.5 976,-392.33 976,-380.05"/>
<polygon fill="#4d00a6" stroke="#4d00a6" stroke-width="2" points="979.5,-380 976,-370 972.5,-380 979.5,-380"/>
</g>
<!-- node10 -->
<g id="node11" class="node">
<title>node10</title>
<polygon fill="#0bdfee" stroke="transparent" points="874.5,-4 874.5,-163 1279.5,-163 1279.5,-4 874.5,-4"/>
<polygon fill="#ff6600" stroke="transparent" points="878,-123.5 878,-159.5 1277,-159.5 1277,-123.5 878,-123.5"/>
<polygon fill="none" stroke="#000000" stroke-width="2" points="879,-124.5 879,-158.5 1276,-158.5 1276,-124.5 879,-124.5"/>
<text text-anchor="start" x="983.5" y="-135.3" font-family="Arial" font-size="24.00">0x504000000450</text>
<polygon fill="#b0e0b0" stroke="transparent" stroke-width="2" points="878,-84.5 878,-120.5 1277,-120.5 1277,-84.5 878,-84.5"/>
<polygon fill="none" stroke="#000000" stroke-width="2" points="879,-85.5 879,-119.5 1276,-119.5 1276,-85.5 879,-85.5"/>
<text text-anchor="start" x="1023" y="-96.3" font-family="Arial" font-size="24.00">type = OP</text>
<polygon fill="#c5a1e6" stroke="transparent" stroke-width="2" points="878,-45.5 878,-81.5 1277,-81.5 1277,-45.5 878,-45.5"/>
<polygon fill="none" stroke="#000000" stroke-width="2" points="879,-46.5 879,-80.5 1276,-80.5 1276,-46.5 879,-46.5"/>
<text text-anchor="start" x="992" y="-57.3" font-family="Arial" font-size="24.00">value = &#160;R_FIG </text>
<polygon fill="#cccccc" stroke="transparent" stroke-width="2" points="878,-6.5 878,-42.5 1076,-42.5 1076,-6.5 878,-6.5"/>
<polygon fill="none" stroke="#000000" stroke-width="2" points="879,-7.5 879,-41.5 1075,-41.5 1075,-7.5 879,-7.5"/>
<text text-anchor="start" x="883" y="-18.3" font-family="Arial" font-size="24.00">0x000000000000</text>
<polygon fill="#cccccc" stroke="transparent" stroke-width="2" points="1079,-6.5 1079,-42.5 1277,-42.5 1277,-6.5 1079,-6.5"/>
<polygon fill="none" stroke="#000000" stroke-width="2" points="1080,-7.5 1080,-41.5 1276,-41.5 1276,-7.5 1080,-7.5"/>
<text text-anchor="start" x="1084" y="-18.3" font-family="Arial" font-size="24.00">0x000000000000</text>
</g>
<!-- node9&#45;&gt;node10 -->
<g id="edge10" class="edge">
<title>node9:s&#45;&gt;node10:n</title>
<path fill="none" stroke="#4d00a6" stroke-width="2" d="M1077,-208.5C1077,-208.5 1077,-189.33 1077,-177.05"/>
<polygon fill="#4d00a6" stroke="#4d00a6" stroke-width="2" points="1080.5,-177 1077,-167 1073.5,-177 1080.5,-177"/>
</g>
</g>
</svg>
