<?xml version="1.0" encoding="UTF-8" standalone="no"?>
<!DOCTYPE svg PUBLIC "-//W3C//DTD SVG 1.1//EN"
 "http://www.w3.org/Graphics/SVG/1.1/DTD/svg11.dtd">
<!-- Generated by graphviz version 2.43.0 (0)
 -->
<!-- Title: DUMP Pages: 1 -->
<svg width="1094pt" height="784pt"
 viewBox="0.00 0.00 1093.50 784.00" xmlns="http://www.w3.org/2000/svg" xmlns:xlink="http://www.w3.org/1999/xlink">
<g id="graph0" class="graph" transform="scale(1 1) rotate(0) translate(4 780)">
<title>DUMP</title>
<polygon fill="white" stroke="transparent" points="-4,4 -4,-780 1089.5,-780 1089.5,4 -4,4"/>
<!-- node0 -->
<g id="node1" class="node">
<title>node0</title>
<polygon fill="#0bdfee" stroke="transparent" points="244.5,-613 244.5,-772 649.5,-772 649.5,-613 244.5,-613"/>
<polygon fill="#ff0044" stroke="transparent" points="248,-732.5 248,-768.5 647,-768.5 647,-732.5 248,-732.5"/>
<polygon fill="none" stroke="#000000" stroke-width="2" points="249,-733.5 249,-767.5 646,-767.5 646,-733.5 249,-733.5"/>
<text text-anchor="start" x="353.5" y="-744.3" font-family="Arial" font-size="24.00">0x504000000590</text>
<polygon fill="#b0e0b0" stroke="transparent" stroke-width="2" points="248,-693.5 248,-729.5 647,-729.5 647,-693.5 248,-693.5"/>
<polygon fill="none" stroke="#000000" stroke-width="2" points="249,-694.5 249,-728.5 646,-728.5 646,-694.5 249,-694.5"/>
<text text-anchor="start" x="377" y="-705.3" font-family="Arial" font-size="24.00">type = FUNC</text>
<polygon fill="#c5a1e6" stroke="transparent" stroke-width="2" points="248,-654.5 248,-690.5 647,-690.5 647,-654.5 248,-654.5"/>
<polygon fill="none" stroke="#000000" stroke-width="2" points="249,-655.5 249,-689.5 646,-689.5 646,-655.5 249,-655.5"/>
<text text-anchor="start" x="319" y="-666.3" font-family="Arial" font-size="24.00">value = &#160;НайтиШпиона </text>
<polygon fill="#0000ff" stroke="transparent" stroke-width="2" points="248,-615.5 248,-651.5 446,-651.5 446,-615.5 248,-615.5"/>
<polygon fill="none" stroke="#000000" stroke-width="2" points="249,-616.5 249,-650.5 445,-650.5 445,-616.5 249,-616.5"/>
<text text-anchor="start" x="253" y="-627.3" font-family="Arial" font-size="24.00">0x504000000690</text>
<polygon fill="#ffcc00" stroke="transparent" stroke-width="2" points="449,-615.5 449,-651.5 647,-651.5 647,-615.5 449,-615.5"/>
<polygon fill="none" stroke="#000000" stroke-width="2" points="450,-616.5 450,-650.5 646,-650.5 646,-616.5 450,-616.5"/>
<text text-anchor="start" x="454" y="-627.3" font-family="Arial" font-size="24.00">0x5040000005d0</text>
</g>
<!-- node1 -->
<g id="node2" class="node">
<title>node1</title>
<polygon fill="#0bdfee" stroke="transparent" points="8,-410 8,-569 436,-569 436,-410 8,-410"/>
<polygon fill="#0000ff" stroke="transparent" points="11,-529.5 11,-565.5 433,-565.5 433,-529.5 11,-529.5"/>
<polygon fill="none" stroke="#000000" stroke-width="2" points="12,-530.5 12,-564.5 432,-564.5 432,-530.5 12,-530.5"/>
<text text-anchor="start" x="128" y="-541.3" font-family="Arial" font-size="24.00">0x504000000690</text>
<polygon fill="#b0e0b0" stroke="transparent" stroke-width="2" points="11,-490.5 11,-526.5 433,-526.5 433,-490.5 11,-490.5"/>
<polygon fill="none" stroke="#000000" stroke-width="2" points="12,-491.5 12,-525.5 432,-525.5 432,-491.5 12,-491.5"/>
<text text-anchor="start" x="151.5" y="-502.3" font-family="Arial" font-size="24.00">type = FUNC</text>
<polygon fill="#c5a1e6" stroke="transparent" stroke-width="2" points="11,-451.5 11,-487.5 433,-487.5 433,-451.5 11,-451.5"/>
<polygon fill="none" stroke="#000000" stroke-width="2" points="12,-452.5 12,-486.5 432,-486.5 432,-452.5 12,-452.5"/>
<text text-anchor="start" x="17.5" y="-463.3" font-family="Arial" font-size="24.00">value = &#160;ВыполнитьПриказГенерала </text>
<polygon fill="#cccccc" stroke="transparent" stroke-width="2" points="11,-412.5 11,-448.5 220,-448.5 220,-412.5 11,-412.5"/>
<polygon fill="none" stroke="#000000" stroke-width="2" points="12,-413.5 12,-447.5 219,-447.5 219,-413.5 12,-413.5"/>
<text text-anchor="start" x="21.5" y="-424.3" font-family="Arial" font-size="24.00">0x000000000000</text>
<polygon fill="#ff00ee" stroke="transparent" stroke-width="2" points="223,-412.5 223,-448.5 433,-448.5 433,-412.5 223,-412.5"/>
<polygon fill="none" stroke="#000000" stroke-width="2" points="224,-413.5 224,-447.5 432,-447.5 432,-413.5 224,-413.5"/>
<text text-anchor="start" x="234" y="-424.3" font-family="Arial" font-size="24.00">0x5040000006d0</text>
</g>
<!-- node0&#45;&gt;node1 -->
<g id="edge1" class="edge">
<title>node0:s&#45;&gt;node1:n</title>
<path fill="none" stroke="#4d00a6" stroke-width="2" d="M347,-614.5C347,-614.5 261.28,-586.04 231.81,-576.26"/>
<polygon fill="#4d00a6" stroke="#4d00a6" stroke-width="2" points="232.59,-572.83 222,-573 230.39,-579.47 232.59,-572.83"/>
</g>
<!-- node4 -->
<g id="node5" class="node">
<title>node4</title>
<polygon fill="#0bdfee" stroke="transparent" points="470.5,-410 470.5,-569 875.5,-569 875.5,-410 470.5,-410"/>
<polygon fill="#ffcc00" stroke="transparent" points="474,-529.5 474,-565.5 873,-565.5 873,-529.5 474,-529.5"/>
<polygon fill="none" stroke="#000000" stroke-width="2" points="475,-530.5 475,-564.5 872,-564.5 872,-530.5 475,-530.5"/>
<text text-anchor="start" x="579.5" y="-541.3" font-family="Arial" font-size="24.00">0x5040000005d0</text>
<polygon fill="#b0e0b0" stroke="transparent" stroke-width="2" points="474,-490.5 474,-526.5 873,-526.5 873,-490.5 474,-490.5"/>
<polygon fill="none" stroke="#000000" stroke-width="2" points="475,-491.5 475,-525.5 872,-525.5 872,-491.5 475,-491.5"/>
<text text-anchor="start" x="619" y="-502.3" font-family="Arial" font-size="24.00">type = OP</text>
<polygon fill="#c5a1e6" stroke="transparent" stroke-width="2" points="474,-451.5 474,-487.5 873,-487.5 873,-451.5 474,-451.5"/>
<polygon fill="none" stroke="#000000" stroke-width="2" points="475,-452.5 475,-486.5 872,-486.5 872,-452.5 475,-452.5"/>
<text text-anchor="start" x="584.5" y="-463.3" font-family="Arial" font-size="24.00">value = &#160;L_RND </text>
<polygon fill="#cccccc" stroke="transparent" stroke-width="2" points="474,-412.5 474,-448.5 672,-448.5 672,-412.5 474,-412.5"/>
<polygon fill="none" stroke="#000000" stroke-width="2" points="475,-413.5 475,-447.5 671,-447.5 671,-413.5 475,-413.5"/>
<text text-anchor="start" x="479" y="-424.3" font-family="Arial" font-size="24.00">0x000000000000</text>
<polygon fill="#22ff00" stroke="transparent" stroke-width="2" points="675,-412.5 675,-448.5 873,-448.5 873,-412.5 675,-412.5"/>
<polygon fill="none" stroke="#000000" stroke-width="2" points="676,-413.5 676,-447.5 872,-447.5 872,-413.5 676,-413.5"/>
<text text-anchor="start" x="680" y="-424.3" font-family="Arial" font-size="24.00">0x504000000610</text>
</g>
<!-- node0&#45;&gt;node4 -->
<g id="edge4" class="edge">
<title>node0:s&#45;&gt;node4:n</title>
<path fill="none" stroke="#4d00a6" stroke-width="2" d="M548,-614.5C548,-614.5 633.72,-586.04 663.19,-576.26"/>
<polygon fill="#4d00a6" stroke="#4d00a6" stroke-width="2" points="664.61,-579.47 673,-573 662.41,-572.83 664.61,-579.47"/>
</g>
<!-- node2 -->
<g id="node3" class="node">
<title>node2</title>
<polygon fill="#0bdfee" stroke="transparent" points="125.5,-207 125.5,-366 530.5,-366 530.5,-207 125.5,-207"/>
<polygon fill="#ff00ee" stroke="transparent" points="129,-326.5 129,-362.5 528,-362.5 528,-326.5 129,-326.5"/>
<polygon fill="none" stroke="#000000" stroke-width="2" points="130,-327.5 130,-361.5 527,-361.5 527,-327.5 130,-327.5"/>
<text text-anchor="start" x="234.5" y="-338.3" font-family="Arial" font-size="24.00">0x5040000006d0</text>
<polygon fill="#b0e0b0" stroke="transparent" stroke-width="2" points="129,-287.5 129,-323.5 528,-323.5 528,-287.5 129,-287.5"/>
<polygon fill="none" stroke="#000000" stroke-width="2" points="130,-288.5 130,-322.5 527,-322.5 527,-288.5 130,-288.5"/>
<text text-anchor="start" x="274" y="-299.3" font-family="Arial" font-size="24.00">type = OP</text>
<polygon fill="#c5a1e6" stroke="transparent" stroke-width="2" points="129,-248.5 129,-284.5 528,-284.5 528,-248.5 129,-248.5"/>
<polygon fill="none" stroke="#000000" stroke-width="2" points="130,-249.5 130,-283.5 527,-283.5 527,-249.5 130,-249.5"/>
<text text-anchor="start" x="239.5" y="-260.3" font-family="Arial" font-size="24.00">value = &#160;L_RND </text>
<polygon fill="#cccccc" stroke="transparent" stroke-width="2" points="129,-209.5 129,-245.5 327,-245.5 327,-209.5 129,-209.5"/>
<polygon fill="none" stroke="#000000" stroke-width="2" points="130,-210.5 130,-244.5 326,-244.5 326,-210.5 130,-210.5"/>
<text text-anchor="start" x="134" y="-221.3" font-family="Arial" font-size="24.00">0x000000000000</text>
<polygon fill="#ff2200" stroke="transparent" stroke-width="2" points="330,-209.5 330,-245.5 528,-245.5 528,-209.5 330,-209.5"/>
<polygon fill="none" stroke="#000000" stroke-width="2" points="331,-210.5 331,-244.5 527,-244.5 527,-210.5 331,-210.5"/>
<text text-anchor="start" x="335" y="-221.3" font-family="Arial" font-size="24.00">0x504000000710</text>
</g>
<!-- node1&#45;&gt;node2 -->
<g id="edge2" class="edge">
<title>node1:s&#45;&gt;node2:n</title>
<path fill="none" stroke="#4d00a6" stroke-width="2" d="M328,-411.5C328,-411.5 328,-392.33 328,-380.05"/>
<polygon fill="#4d00a6" stroke="#4d00a6" stroke-width="2" points="331.5,-380 328,-370 324.5,-380 331.5,-380"/>
</g>
<!-- node3 -->
<g id="node4" class="node">
<title>node3</title>
<polygon fill="#0bdfee" stroke="transparent" points="226.5,-4 226.5,-163 631.5,-163 631.5,-4 226.5,-4"/>
<polygon fill="#ff2200" stroke="transparent" points="230,-123.5 230,-159.5 629,-159.5 629,-123.5 230,-123.5"/>
<polygon fill="none" stroke="#000000" stroke-width="2" points="231,-124.5 231,-158.5 628,-158.5 628,-124.5 231,-124.5"/>
<text text-anchor="start" x="335.5" y="-135.3" font-family="Arial" font-size="24.00">0x504000000710</text>
<polygon fill="#b0e0b0" stroke="transparent" stroke-width="2" points="230,-84.5 230,-120.5 629,-120.5 629,-84.5 230,-84.5"/>
<polygon fill="none" stroke="#000000" stroke-width="2" points="231,-85.5 231,-119.5 628,-119.5 628,-85.5 231,-85.5"/>
<text text-anchor="start" x="375" y="-96.3" font-family="Arial" font-size="24.00">type = OP</text>
<polygon fill="#c5a1e6" stroke="transparent" stroke-width="2" points="230,-45.5 230,-81.5 629,-81.5 629,-45.5 230,-45.5"/>
<polygon fill="none" stroke="#000000" stroke-width="2" points="231,-46.5 231,-80.5 628,-80.5 628,-46.5 231,-46.5"/>
<text text-anchor="start" x="338.5" y="-57.3" font-family="Arial" font-size="24.00">value = &#160;R_RND </text>
<polygon fill="#cccccc" stroke="transparent" stroke-width="2" points="230,-6.5 230,-42.5 428,-42.5 428,-6.5 230,-6.5"/>
<polygon fill="none" stroke="#000000" stroke-width="2" points="231,-7.5 231,-41.5 427,-41.5 427,-7.5 231,-7.5"/>
<text text-anchor="start" x="235" y="-18.3" font-family="Arial" font-size="24.00">0x000000000000</text>
<polygon fill="#cccccc" stroke="transparent" stroke-width="2" points="431,-6.5 431,-42.5 629,-42.5 629,-6.5 431,-6.5"/>
<polygon fill="none" stroke="#000000" stroke-width="2" points="432,-7.5 432,-41.5 628,-41.5 628,-7.5 432,-7.5"/>
<text text-anchor="start" x="436" y="-18.3" font-family="Arial" font-size="24.00">0x000000000000</text>
</g>
<!-- node2&#45;&gt;node3 -->
<g id="edge3" class="edge">
<title>node2:s&#45;&gt;node3:n</title>
<path fill="none" stroke="#4d00a6" stroke-width="2" d="M429,-208.5C429,-208.5 429,-189.33 429,-177.05"/>
<polygon fill="#4d00a6" stroke="#4d00a6" stroke-width="2" points="432.5,-177 429,-167 425.5,-177 432.5,-177"/>
</g>
<!-- node5 -->
<g id="node6" class="node">
<title>node5</title>
<polygon fill="#0bdfee" stroke="transparent" points="571.5,-207 571.5,-366 976.5,-366 976.5,-207 571.5,-207"/>
<polygon fill="#22ff00" stroke="transparent" points="575,-326.5 575,-362.5 974,-362.5 974,-326.5 575,-326.5"/>
<polygon fill="none" stroke="#000000" stroke-width="2" points="576,-327.5 576,-361.5 973,-361.5 973,-327.5 576,-327.5"/>
<text text-anchor="start" x="680.5" y="-338.3" font-family="Arial" font-size="24.00">0x504000000610</text>
<polygon fill="#b0e0b0" stroke="transparent" stroke-width="2" points="575,-287.5 575,-323.5 974,-323.5 974,-287.5 575,-287.5"/>
<polygon fill="none" stroke="#000000" stroke-width="2" points="576,-288.5 576,-322.5 973,-322.5 973,-288.5 576,-288.5"/>
<text text-anchor="start" x="714" y="-299.3" font-family="Arial" font-size="24.00">type = VAR</text>
<polygon fill="#c5a1e6" stroke="transparent" stroke-width="2" points="575,-248.5 575,-284.5 974,-284.5 974,-248.5 575,-248.5"/>
<polygon fill="none" stroke="#000000" stroke-width="2" points="576,-249.5 576,-283.5 973,-283.5 973,-249.5 576,-249.5"/>
<text text-anchor="start" x="645" y="-260.3" font-family="Arial" font-size="24.00">value = &#160;ПозицияВрага </text>
<polygon fill="#cccccc" stroke="transparent" stroke-width="2" points="575,-209.5 575,-245.5 773,-245.5 773,-209.5 575,-209.5"/>
<polygon fill="none" stroke="#000000" stroke-width="2" points="576,-210.5 576,-244.5 772,-244.5 772,-210.5 576,-210.5"/>
<text text-anchor="start" x="580" y="-221.3" font-family="Arial" font-size="24.00">0x000000000000</text>
<polygon fill="#00ffee" stroke="transparent" stroke-width="2" points="776,-209.5 776,-245.5 974,-245.5 974,-209.5 776,-209.5"/>
<polygon fill="none" stroke="#000000" stroke-width="2" points="777,-210.5 777,-244.5 973,-244.5 973,-210.5 777,-210.5"/>
<text text-anchor="start" x="781" y="-221.3" font-family="Arial" font-size="24.00">0x504000000650</text>
</g>
<!-- node4&#45;&gt;node5 -->
<g id="edge5" class="edge">
<title>node4:s&#45;&gt;node5:n</title>
<path fill="none" stroke="#4d00a6" stroke-width="2" d="M774,-411.5C774,-411.5 774,-392.33 774,-380.05"/>
<polygon fill="#4d00a6" stroke="#4d00a6" stroke-width="2" points="777.5,-380 774,-370 770.5,-380 777.5,-380"/>
</g>
<!-- node6 -->
<g id="node7" class="node">
<title>node6</title>
<polygon fill="#0bdfee" stroke="transparent" points="672.5,-4 672.5,-163 1077.5,-163 1077.5,-4 672.5,-4"/>
<polygon fill="#00ffee" stroke="transparent" points="676,-123.5 676,-159.5 1075,-159.5 1075,-123.5 676,-123.5"/>
<polygon fill="none" stroke="#000000" stroke-width="2" points="677,-124.5 677,-158.5 1074,-158.5 1074,-124.5 677,-124.5"/>
<text text-anchor="start" x="781.5" y="-135.3" font-family="Arial" font-size="24.00">0x504000000650</text>
<polygon fill="#b0e0b0" stroke="transparent" stroke-width="2" points="676,-84.5 676,-120.5 1075,-120.5 1075,-84.5 676,-84.5"/>
<polygon fill="none" stroke="#000000" stroke-width="2" points="677,-85.5 677,-119.5 1074,-119.5 1074,-85.5 677,-85.5"/>
<text text-anchor="start" x="821" y="-96.3" font-family="Arial" font-size="24.00">type = OP</text>
<polygon fill="#c5a1e6" stroke="transparent" stroke-width="2" points="676,-45.5 676,-81.5 1075,-81.5 1075,-45.5 676,-45.5"/>
<polygon fill="none" stroke="#000000" stroke-width="2" points="677,-46.5 677,-80.5 1074,-80.5 1074,-46.5 677,-46.5"/>
<text text-anchor="start" x="784.5" y="-57.3" font-family="Arial" font-size="24.00">value = &#160;R_RND </text>
<polygon fill="#cccccc" stroke="transparent" stroke-width="2" points="676,-6.5 676,-42.5 874,-42.5 874,-6.5 676,-6.5"/>
<polygon fill="none" stroke="#000000" stroke-width="2" points="677,-7.5 677,-41.5 873,-41.5 873,-7.5 677,-7.5"/>
<text text-anchor="start" x="681" y="-18.3" font-family="Arial" font-size="24.00">0x000000000000</text>
<polygon fill="#cccccc" stroke="transparent" stroke-width="2" points="877,-6.5 877,-42.5 1075,-42.5 1075,-6.5 877,-6.5"/>
<polygon fill="none" stroke="#000000" stroke-width="2" points="878,-7.5 878,-41.5 1074,-41.5 1074,-7.5 878,-7.5"/>
<text text-anchor="start" x="882" y="-18.3" font-family="Arial" font-size="24.00">0x000000000000</text>
</g>
<!-- node5&#45;&gt;node6 -->
<g id="edge6" class="edge">
<title>node5:s&#45;&gt;node6:n</title>
<path fill="none" stroke="#4d00a6" stroke-width="2" d="M875,-208.5C875,-208.5 875,-189.33 875,-177.05"/>
<polygon fill="#4d00a6" stroke="#4d00a6" stroke-width="2" points="878.5,-177 875,-167 871.5,-177 878.5,-177"/>
</g>
</g>
</svg>
